PathFileType	4	(X/Y/Z)	walk-thru1-1-TP.trc
DataRate	CameraRate	NumFrames	NumMarkers	Units	OrigDataRate	OrigDataStartFrame	OrigNumFrames
120.00	120.00	       4	60	mm	120.00	170	       452
Frame#	Time	Top.Head			Front.Head			Rear.Head			Jaw			C7			R.Clavicle			L.Clavicle			R.Shoulder			L.Shoulder			R.Scapula			L.Scapula			R.Scap.Inf			R.Biceps.Lateral			R.Elbow			R.Elbow.Medial			R.Forearm			R.Ulna			R.Radius			R.Wrist			R.Thumb.M1			R.Thumb.M2			R.Thumb.M3			R.Finger3.M1			R.Finger3.M2			R.Finger3.M3			L.Biceps.Lateral			L.Elbow			L.Elbow.Medial			L.Forearm			L.Ulna			L.Radius			L.Wrist			L.Thumb.M1			L.Thumb.M2			L.Thumb.M3			L.Finger3.M1			L.Finger3.M2			L.Finger3.M3			V.Sacral			R.ASIS			L.ASIS			R.Thigh			R.Thigh.Front			R.Knee			R.Knee.Medial			R.Shank			R.Ankle			R.Ankle.Medial			R.Heel			R.Toe			R.MedFoot			L.Thigh			L.Knee			L.Knee.Medial			L.Shank			L.Ankle			L.Ankle.Medial			L.Heel			L.Toe			L.MedFoot			V_mid_ASIS			V_R_Knee_JC			V_L_Knee_JC			V_R_Elbow_JC			V_L_Elbow_JC			V_R_Ankle_JC			V_L_Ankle_JC			V_R_Wrist_JC			V_L_Wrist_JC			V_R_ScaTrpz_1stMC_JC			V_R_1stMC_1stPP_JC			V_R_1stPP_1stDP_JC			V_R_LunCap_3rdMC_JC			V_R_3rdMC_3rdPP_JC			V_R_3rdPP_3rdMP_JC			V_R_3rdMP_3rdDP_JC			V_L_ScaTrpz_1stMC_JC			V_L_1stMC_1stPP_JC			V_L_1stPP_1stDP_JC			V_L_LunCap_3rdMC_JC			V_L_3rdMC_3rdPP_JC			V_L_3rdPP_3rdMP_JC			V_L_3rdMP_3rdPP_JC			V_ROOT_JC			V_R_Hip_JC			V_L_Hip_JC			V_R_GlenHum_JC			V_L_GlenHum_JC			V_ForeHead_Ctr			V_Vertex			V_Sagit_Lambdoid_Suture			V_R_FrontoTemp			V_L_FrontoTemporal			V_R_ParietalOccip			V_L_ParietalOcciptal			V_R_Temporal			V_L_Temporal			V_mid_FrontRearHead			V_mid_RLGlenHumCtrs			V_C7_vert			V_C1_vert			V_Mid_Hip			
		X1	Y1	Z1	X2	Y2	Z2	X3	Y3	Z3	X4	Y4	Z4	X5	Y5	Z5	X6	Y6	Z6	X7	Y7	Z7	X8	Y8	Z8	X9	Y9	Z9	X10	Y10	Z10	X11	Y11	Z11	X12	Y12	Z12	X13	Y13	Z13	X14	Y14	Z14	X15	Y15	Z15	X16	Y16	Z16	X17	Y17	Z17	X18	Y18	Z18	X19	Y19	Z19	X20	Y20	Z20	X21	Y21	Z21	X22	Y22	Z22	X23	Y23	Z23	X24	Y24	Z24	X25	Y25	Z25	X26	Y26	Z26	X27	Y27	Z27	X28	Y28	Z28	X29	Y29	Z29	X30	Y30	Z30	X31	Y31	Z31	X32	Y32	Z32	X33	Y33	Z33	X34	Y34	Z34	X35	Y35	Z35	X36	Y36	Z36	X37	Y37	Z37	X38	Y38	Z38	X39	Y39	Z39	X40	Y40	Z40	X41	Y41	Z41	X42	Y42	Z42	X43	Y43	Z43	X44	Y44	Z44	X45	Y45	Z45	X46	Y46	Z46	X47	Y47	Z47	X48	Y48	Z48	X49	Y49	Z49	X50	Y50	Z50	X51	Y51	Z51	X52	Y52	Z52	X53	Y53	Z53	X54	Y54	Z54	X55	Y55	Z55	X56	Y56	Z56	X57	Y57	Z57	X58	Y58	Z58	X59	Y59	Z59	X60	Y60	Z60	

170	1.408	467.12637	-0.58410	1554.17529	358.39035	0.67622	1462.33179	571.40704	2.77239	1464.23315	377.56851	14.43885	1319.02539	580.06549	20.87377	1357.94067	491.28796	130.62573	1272.85742	485.11996	-86.09998	1276.28503	541.52032	207.61775	1268.86218	538.38544	-176.40227	1271.76074	624.43292	107.92367	1282.30627	630.29150	-73.74606	1278.99573	670.26746	93.61584	1197.87903	516.43030	261.88379	1129.33887	539.84192	285.91833	968.07617	565.36371	214.62117	948.68530	452.39563	282.08063	902.31458	468.94287	307.33054	814.91510	395.13239	265.51663	778.70258	395.95779	307.22577	745.08514	364.39178	268.44968	731.37524	348.72043	251.46722	699.90057	336.51874	241.22478	657.49573	367.16940	318.58401	671.55029	361.20081	296.62491	623.51660	367.13382	276.09622	589.40808	556.28491	-236.32230	1126.89221	601.92603	-244.50107	982.93707	618.13916	-166.10471	973.52423	519.25000	-236.27037	915.26660	540.89484	-271.37122	823.05029	483.69763	-220.38593	778.69348	484.07379	-270.58743	752.01410	457.23117	-230.99579	739.29108	445.57950	-210.01996	702.01935	444.42285	-200.07542	651.76666	461.56763	-273.65988	664.63074	460.11221	-260.10071	626.53754	469.55817	-225.94753	592.05615	678.98224	12.38246	900.63617	481.58163	177.05339	945.51758	488.58270	-140.65671	946.29468	554.59027	205.25179	561.02679	515.81812	139.81674	452.46063	585.59656	173.39978	419.06143	573.74359	60.96499	414.39197	682.22632	121.72380	274.07047	867.03552	132.51593	140.10307	840.73511	44.54200	149.70551	924.15021	79.90597	161.28458	781.71722	89.83625	38.59541	799.98035	61.88058	87.56294	417.03897	-174.39751	587.20764	369.65549	-141.72998	451.21063	348.98297	-25.54486	445.58194	358.94321	-76.21807	257.87170	423.51785	-93.84664	66.58933	411.06873	-3.02722	85.64557	481.06198	-44.00576	45.04210	276.21490	-59.91344	43.01075	332.68033	-24.63255	63.38914																																																																																																																															
171	1.417	459.21332	-1.51789	1555.65710	350.34128	0.00548	1463.92200	563.77942	1.99843	1465.73328	368.73831	14.08075	1321.22168	571.18048	19.89170	1358.85840	483.99628	129.38010	1273.61218	477.10489	-86.52966	1277.30432	533.17487	206.07487	1269.91931	530.81134	-176.85059	1273.61768	615.65802	107.55907	1283.61963	621.52399	-72.87397	1280.19885	661.31262	92.59581	1199.33923	510.33072	261.20355	1130.40112	535.17334	285.70758	969.98187	559.53424	214.08804	951.14752	448.41599	282.49219	903.23364	467.41159	308.56485	816.27911	394.17230	266.61670	778.02991	395.07147	307.28549	744.32916	363.51337	269.09253	729.95776	348.90216	251.25700	695.05927	338.16068	241.43391	655.98334	368.03812	319.04276	670.59082	362.65054	298.00870	621.93591	370.28940	276.02881	586.91168	548.21362	-237.47781	1129.05042	593.94788	-245.95076	983.99530	609.77039	-167.13051	974.98901	509.84497	-237.69672	917.20679	531.22180	-272.77579	824.78265	472.86765	-222.07726	780.71399	475.16949	-271.13281	753.83789	447.33029	-232.25000	742.37097	434.77814	-212.19058	704.33215	432.62613	-202.64265	654.13586	451.56577	-274.28598	666.45612	450.41861	-260.31927	628.00525	458.89511	-226.86987	594.54419	670.68201	12.44655	901.91302	473.21286	176.11752	947.62152	482.24454	-141.79700	948.30408	542.37177	204.95560	562.28265	503.48495	140.82149	453.13861	571.99713	173.09680	419.00540	559.20435	61.84029	414.02463	672.14355	122.18535	274.41922	858.10400	132.89882	145.34056	830.65259	45.20871	154.48761	915.13019	78.37846	169.17496	779.39722	89.35637	39.11436	793.46765	61.80784	89.07262	412.48282	-176.31615	587.50800	369.36984	-142.98984	450.91794	348.51794	-25.06754	445.26508	357.34476	-76.71460	257.33835	423.51785	-93.84664	66.58933	411.88339	-2.74300	85.82150	481.08423	-43.76299	45.15662	276.04416	-59.97942	43.08473	332.54572	-24.82551	63.44871																																																																																																																															
172	1.425	451.48697	-2.70553	1557.63013	342.06085	-1.00100	1465.28430	555.88898	1.78252	1467.56580	361.14655	12.86188	1322.21387	564.56866	17.02293	1360.70544	475.50912	129.04242	1276.23059	468.89218	-87.29025	1279.15601	525.93835	204.88104	1272.38953	522.52948	-178.51509	1275.45667	608.39185	106.73592	1285.96716	613.61523	-74.62302	1281.99207	653.23499	92.18648	1201.28638	503.74600	260.57260	1132.45508	530.10474	285.00107	972.35974	555.35748	213.08235	952.45129	445.73706	281.14346	903.53473	465.81088	308.57779	816.62457	393.35324	267.38071	777.40948	394.48477	307.47058	743.75867	363.52573	269.83545	728.81732	350.12961	250.94583	693.79047	340.48749	241.84720	654.12921	368.97824	319.36334	669.63501	364.62744	298.46399	620.31653	373.55954	277.96347	585.66345	539.92413	-238.15738	1130.41882	585.30817	-244.86275	985.38629	600.24683	-167.76883	976.63721	501.30728	-238.63075	919.63287	521.33954	-273.34482	827.07312	464.07309	-223.46112	783.09613	464.09042	-272.37158	756.59106	437.14090	-233.31557	745.07581	424.27829	-213.03436	706.82263	421.45377	-203.17018	657.11823	440.50433	-276.79297	669.93634	439.03503	-261.47946	631.31714	445.77463	-229.56493	597.18140	663.00238	12.28599	902.70123	464.24017	174.32253	949.04919	475.10776	-143.14267	949.38110	529.90967	204.31468	562.25671	489.54044	141.66896	453.83890	558.53430	174.59834	419.35474	543.99640	62.54027	413.12729	659.98102	123.14442	274.79663	850.32831	132.43280	149.43768	821.29193	45.90432	158.16200	903.83801	77.18379	176.47617	777.84351	89.24763	38.78378	788.03009	61.82414	89.45827	410.76047	-176.26999	586.76855	368.43756	-143.42653	450.40610	348.23410	-24.27724	443.28284	356.49149	-77.35497	256.54538	423.38403	-94.25227	66.76924	411.88339	-2.74300	85.82150	481.11264	-43.61459	45.22015	275.93750	-60.67984	43.16099	332.50665	-24.92350	63.39418																																																																																																																															
173	1.433	443.64316	-3.50553	1558.30286	334.64789	-1.24983	1467.14648	548.14215	0.42503	1468.08997	354.35333	12.13975	1324.15686	555.96619	16.73650	1362.26953	467.85931	127.39687	1277.55310	461.18536	-88.19385	1281.16663	517.11584	204.15106	1273.24072	514.62604	-179.41093	1277.57739	600.21436	105.23586	1287.01306	606.49896	-75.72308	1283.57507	645.83386	91.22105	1202.90796	495.69183	260.35013	1135.06018	525.24707	283.87585	974.56250	550.30829	213.39018	955.85803	442.28925	281.66013	904.39905	464.03391	308.55136	818.29059	391.52298	267.74283	776.77100	393.56674	307.93680	743.04871	363.66904	270.03598	727.16998	351.69064	252.87114	691.61108	341.84564	242.74721	651.42169	371.19464	320.57968	667.72174	367.78149	299.58594	619.73395	376.56140	279.21082	585.27203	531.77826	-238.89552	1132.47180	576.64014	-246.41660	987.26660	591.49274	-167.46864	979.28296	492.40610	-239.29073	921.38379	512.42004	-273.55853	829.14264	454.04935	-224.87785	785.52112	455.21918	-273.49536	758.59003	426.37888	-234.96846	748.66382	414.06570	-214.68808	710.24817	411.35016	-204.76048	660.15869	430.32623	-277.45932	671.83649	428.33920	-263.31494	633.01135	433.86801	-229.94913	600.27356	655.85211	12.43642	904.16571	455.73657	172.90608	950.15704	468.58591	-145.23619	951.04535	517.92749	203.92831	562.94458	474.68433	142.95667	454.97287	544.31573	173.03259	418.43054	528.67480	61.96198	412.86908	648.09625	124.08857	275.94687	839.98926	132.83054	153.90376	809.88757	46.70737	160.54411	892.32855	77.12488	184.13564	775.60962	90.08173	39.23775	780.82678	62.95628	91.39609	410.73276	-175.34642	584.62585	367.55878	-143.53206	449.46466	347.53592	-24.19874	442.37216	356.07834	-78.38151	255.91454	423.36514	-94.53769	66.57274	411.88339	-2.74300	85.82150	481.08405	-43.45396	45.29302	276.13229	-60.88771	42.92803	332.56165	-25.16833	63.40024																																																																																																																															
